<?xml version="1.0" standalone="no"?><!DOCTYPE svg PUBLIC "-//W3C//DTD SVG 1.1//EN" "http://www.w3.org/Graphics/SVG/1.1/DTD/svg11.dtd"><svg t="1585043700196" class="icon" viewBox="0 0 1024 1024" version="1.1" xmlns="http://www.w3.org/2000/svg" p-id="5389" xmlns:xlink="http://www.w3.org/1999/xlink" width="128" height="128"><defs><style type="text/css"></style></defs><path d="M503.20189647 666.34388141c-86.22141986 0-156.60625102-71.89307903-156.60625249-160.37686703 0-88.48378946 70.13345775-160.37686702 156.60625249-160.37686701 86.22141986 0 156.3548776 71.89307903 156.35487612 160.37686701v2.76511793c-1.00549809 61.58672763-35.44379047 116.13497302-89.99203438 142.52928507-20.61270133 10.05497651-42.98502249 15.08246403-66.36284174 15.08246403z m0-285.56131848c-67.36833982 0-122.41933354 56.05649181-122.41933354 125.18445145 0 69.12795966 54.79961883 125.18445145 122.41933354 125.18445145 26.39431205 0 51.78312601-8.54673012 72.89857566-24.63469075 30.41630294-23.12644435 48.51525979-58.82160972 49.52075639-97.53326789v-3.01649281c0-69.12795966-54.79961883-125.18445145-122.41933205-125.18445145z m0 0" fill="#61677c" p-id="5390"></path><path d="M201.30124099 785.49534725c-34.94104215 0-63.59772382-29.15942997-63.59772382-65.10596874V339.30578686c0-35.94653878 28.40530676-65.10597022 63.59772382-65.10597021H323.46919964v-29.91355318c0-35.94653878 28.40530676-65.35734363 63.59772382-65.35734363h232.26994603c34.94104215 0 63.59772382 29.15942997 63.59772236 65.35734363v29.91355318h122.41933355c34.94104215 0 63.59772382 29.15942997 63.59772378 65.10597021v50.7776294c0.2513749 1.50824641 0.2513749 2.76511791 0.25137343 4.27336431V506.97251248c0 14.57971571-11.81459632 26.39431205-26.39431206 26.39431206-13.82559251 0-25.38881395-10.80909971-26.39431204-24.63469223v-148.56227071c0-21.86957285-17.59620852-39.46578137-38.96303159-39.46577989h-136.49629947v-49.52075788c0-21.86957285-17.59620852-39.46578137-38.96303158-39.46577989h-197.32890536c-21.61819796 0-38.96303158 17.59620852-38.9630316 39.46577989v49.26938299h-136.49629948c-21.61819796 0-38.96303158 17.59620852-38.96303158 39.46578137v333.32245505c0 21.86957285 17.59620852 39.46578137 38.96303158 39.46577991H572.58123101c14.32834082 0.2513749 25.89156372 12.06597121 25.89156226 26.39431204s-11.56322291 26.14293716-25.89156226 26.39431206H201.30124099z m0 0" fill="#61677c" p-id="5391"></path><path d="M769.91013491 844.56833185c-13.57421762 0-24.63469075-11.06047312-24.63469074-24.63469075v-241.31942449c0-13.57421762 11.06047312-24.63469075 24.63469074-24.6346922h3.51924111c13.57421762 0 24.63469075 11.06047312 24.63469224 24.6346922v241.31942449c0 13.57421762-11.06047312 24.63469075-24.63469224 24.63469075h-3.51924111z m0 0" fill="#61677c" p-id="5392"></path><path d="M650.75866908 725.66824091c-13.57421762 0-24.63469075-11.06047312-24.63469078-24.63469223v-3.51924112c0-13.57421762 11.06047312-24.63469075 24.63469078-24.63469076h241.57079936c13.57421762 0 24.63469075 11.06047312 24.63469076 24.63469076v3.51924112c0 13.57421762-11.06047312 24.63469075-24.63469076 24.63469223h-241.57079936zM1119.3205521 1264.11220677h-135.49080286v-33.93554407h135.23942797z" fill="#61677c" p-id="5393"></path><path d="M781.47335782 1230.1766627h134.98805307v33.93554407h-134.98805307zM579.11696494 1230.1766627h134.98805305v33.93554407h-134.98805305zM376.76057203 1230.1766627h134.98805307v33.93554407h-134.98805307zM174.15280574 1230.1766627h134.98805307v33.93554407h-134.98805307zM-28.20358715 1230.1766627h134.98805307v33.93554407H-28.20358715zM-95.82330041 1264.11220677c-51.78312601-0.2513749-100.04701091-28.40530676-125.93857464-73.40132544l29.41080486-17.09345873c19.85857813 34.43829237 56.81061501 56.05649181 96.77914468 56.30786522l-0.2513749 34.18691895zM1192.21912775 1244.50500354l-17.09345875-29.41080486c34.43829237-19.85857813 56.05649181-57.06198842 56.30786523-96.77914467l34.18691895 0.25137489c-0.50274831 51.78312601-28.65668166 100.04701091-73.40132543 125.93857464zM-207.18215934 1118.31505401L-222.01324994 1117.8123057H-241.36907829v-134.73667966h34.18691895zM1231.18215934 916.210036h34.18691895v134.73667818h-34.18691895zM-241.36907829 780.97060803h33.93554406v134.73667967H-241.36907829zM1231.18215934 714.10501799h34.18691895V848.84169616h-34.18691895zM-207.18215934 713.60226969H-241.36907829v-134.98805308h34.18691895v134.98805308zM1231.18215934 512h34.18691895v134.73667818h-34.18691895zM-207.18215934 511.2458768H-241.36907829v-134.73667818h34.18691895v134.73667818zM1231.18215934 309.64360711h34.18691895v134.73667964h-34.18691895zM-241.36907829 174.40418063h33.93554406v134.73667818H-241.36907829zM1231.18215934 107.53858911h34.18691895v134.73667966h-34.18691895zM-241.36907829-27.95221227h33.93554406v134.73667819H-241.36907829zM1231.18215934-94.5664289h34.18691895v134.73667966h-34.18691895zM-207.18215934-95.06917721L-241.36907829-95.3205521C-240.86632998-147.1036781-212.71239663-195.367563-167.96775286-221.25912675L-150.8742941-191.84832188C-185.31258647-171.98974374-206.93078592-134.78633199-207.18215934-95.06917721zM1216.35107019-150.62291921c-19.85857813-34.43829237-57.06198842-56.05649181-96.77914468-56.30786671l0.2513749-33.93554406c51.78312601 0.2513749 100.04701091 28.40530676 126.18994953 73.14995055l-29.66217975 17.09346022zM-95.06917721-206.67941103V-240.86632998v17.09346022l0.25137491-17.09346022h134.73667816v34.18691895zM917.21553408-240.86632998h134.98805307V-206.93078592h-134.98805307zM849.84719426-206.67941103h-134.98805307V-240.86632998h134.98805307v34.18691895zM512.2513749-240.86632998h134.98805307V-206.93078592h-134.98805307zM309.89498201-240.86632998h134.98805305V-206.93078592h-134.98805305zM107.53858911-240.86632998h134.98805307V-206.93078592h-134.98805307z" fill="#61677c" p-id="5394"></path></svg>