<?xml version="1.0" standalone="no"?><!DOCTYPE svg PUBLIC "-//W3C//DTD SVG 1.1//EN" "http://www.w3.org/Graphics/SVG/1.1/DTD/svg11.dtd"><svg t="1585044220525" class="icon" viewBox="0 0 1024 1024" version="1.1" xmlns="http://www.w3.org/2000/svg" p-id="9698" data-spm-anchor-id="a313x.7781069.0.i16" xmlns:xlink="http://www.w3.org/1999/xlink" width="128" height="128"><defs><style type="text/css"></style></defs><path d="M511.950005 0.09999C229.177619 0.09999 0 229.3776 0 512.049995c0 282.772386 229.177619 511.950005 511.950005 511.950005s511.950005-229.177619 511.950005-511.950005c0-282.672395-229.177619-511.950005-511.950005-511.950005z m219.578557 665.135046c18.298213 18.298213 18.298213 47.995313 0 66.393516-18.298213 18.298213-47.995313 18.298213-66.393517 0L511.950005 578.443511 358.764964 731.628552c-18.298213 18.298213-47.995313 18.298213-66.393516 0-18.298213-18.298213-18.298213-47.995313 0-66.393516l153.185041-153.185041L292.471438 358.964945c-18.298213-18.298213-18.298213-48.095303 0-66.393516 18.298213-18.298213 47.995313-18.298213 66.393517 0L511.950005 445.756469l153.18504-153.18504c18.298213-18.298213 47.995313-18.298213 66.393517 0 18.298213 18.298213 18.298213 48.095303 0 66.393516L578.343521 512.049995l153.185041 153.185041z m0 0" p-id="9699" fill="#3c64d0" data-spm-anchor-id="a313x.7781069.0.i15" class=""></path></svg>