<?xml version="1.0" standalone="no"?><!DOCTYPE svg PUBLIC "-//W3C//DTD SVG 1.1//EN" "http://www.w3.org/Graphics/SVG/1.1/DTD/svg11.dtd"><svg t="1584857061898" class="icon" viewBox="0 0 1024 1024" version="1.1" xmlns="http://www.w3.org/2000/svg" p-id="9770" xmlns:xlink="http://www.w3.org/1999/xlink" width="128" height="128"><defs><style type="text/css"></style></defs><path d="M512 0C229.222 0 0 229.222 0 512s229.222 512 512 512 512-229.222 512-512S794.778 0 512 0z m182.972 618.172L538.675 774.468a33.929 33.929 0 0 1-5.222 4.267c-0.836 0.563-1.758 0.956-2.646 1.434-1.075 0.58-2.099 1.228-3.242 1.706-1.127 0.461-2.304 0.734-3.465 1.075-0.973 0.29-1.911 0.666-2.918 0.87a33.826 33.826 0 0 1-13.38 0c-1.024-0.204-1.963-0.58-2.953-0.87-1.143-0.34-2.304-0.597-3.413-1.058-1.178-0.478-2.236-1.143-3.345-1.758-0.837-0.46-1.724-0.836-2.526-1.382a35.004 35.004 0 0 1-5.24-4.284L334.012 618.155c-12.032-12.032-14.985-31.386-5.052-45.21a34.133 34.133 0 0 1 51.985-4.386l70.264 70.263c10.752 10.752 29.132 3.14 29.132-12.066V274.33c0-16.999 11.623-32.768 28.4-35.5a34.15 34.15 0 0 1 39.867 33.673v354.253c0 15.207 18.38 22.818 29.133 12.066l70.263-70.246a34.133 34.133 0 0 1 51.985 4.386c9.967 13.824 7.015 33.178-5.017 45.21z" fill="#3c64d0" p-id="9771"></path></svg>