<?xml version="1.0" standalone="no"?><!DOCTYPE svg PUBLIC "-//W3C//DTD SVG 1.1//EN" "http://www.w3.org/Graphics/SVG/1.1/DTD/svg11.dtd"><svg t="1585045658938" class="icon" viewBox="0 0 1024 1024" version="1.1" xmlns="http://www.w3.org/2000/svg" p-id="10504" xmlns:xlink="http://www.w3.org/1999/xlink" width="128" height="128"><defs><style type="text/css"></style></defs><path d="M512 0C229.2 0 0 229.2 0 512s229.2 512 512 512 512-229.2 512-512S794.8 0 512 0z m42.7 768.1c0 23.5-18.9 42.6-42.7 42.6-23.6 0-42.7-19.6-42.7-42.6V469.2c0-23.5 18.9-42.6 42.7-42.6 23.6 0 42.7 19.6 42.7 42.6v298.9zM512 341.3c-35.3 0-64-28.7-64-64s28.7-64 64-64 64 28.7 64 64c0 35.4-28.7 64-64 64z" fill="#3c64d0" p-id="10505"></path></svg>