<?xml version="1.0" standalone="no"?><!DOCTYPE svg PUBLIC "-//W3C//DTD SVG 1.1//EN" "http://www.w3.org/Graphics/SVG/1.1/DTD/svg11.dtd"><svg t="1584101854591" class="icon" viewBox="0 0 1024 1024" version="1.1" xmlns="http://www.w3.org/2000/svg" p-id="2188" xmlns:xlink="http://www.w3.org/1999/xlink" width="128" height="128"><defs><style type="text/css"></style></defs><path d="M365.2 585.2c7.5-2.8 16.8-5.3 27.6-12 15.8-9.7 28-29.6-1.4-54.1-97.4-136.5-62-227.1-47.2-261.2-13.6-5-27.9-7.6-42.5-7.5h-5c-93.3 0-118 82.5-119.9 128.6-1.2 109 67.2 152.4 67.2 152.4s4.3 5.7 4.3 22.3c0 3.8-2.6 15.1-7 18.5-38.1 30.3-165.9 61.7-174.8 126.6-4.7 18.8-1.9 38.1-0.9 56.2 20.9 15.6 87.9 28.9 87.9 28.9s5.5-16.4 11.1-43.5c8.3-40.1 64.1-105.1 200.6-155.2z m591.7 113.1c-9.1-64.8-140.3-96.1-179.5-126.2-4.6-3.4-7-14.8-7-18.5 0-16.7 4.3-22.3 4.3-22.3s70.3-43.3 69-152.2c-2-46.2-31.6-128.5-123-128.5h-5.2c-19.7 0-36.3 3.6-50.3 9.6 19.6 63.6 42.9 180.3-55.8 258.5-38.8 56.2 90.3 89.2 70.3 80.4 116.9 50.9 148.2 90 156.9 130.5 7.2 33.8 11.1 54.4 11.1 54.4s87.5-12.9 110.2-29.4c1-18.2 3.9-37.5-1-56.3zM576.1 573.8c-5.5-4.2-8.7-18.3-8.7-23 0-20.7 5.3-27.7 5.3-27.7-0.1 0.1 86.3-45.4 84.7-189.1-2.3-57.5-38.7-159.8-150.8-159.8h-6.3c-117.2 0-148.4 102.3-150.8 159.8-1.5 135.3 84.7 189.1 84.7 189.1s10.4 11.6 10.4 32.1c0 4.7-8.3 14.3-13.8 18.5-48.1 37.4-221.4 75.1-232.6 155.7-8.7 34.3-60.2 88.3 110.9 110.2 47 6 111.1 9.6 197.6 9.6 396.7 0 314.7-74.7 303.5-118.5-11.3-80.5-186-119.5-234.1-156.9z m0 0" p-id="2189" fill="#61677c"></path></svg>