<?xml version="1.0" standalone="no"?><!DOCTYPE svg PUBLIC "-//W3C//DTD SVG 1.1//EN" "http://www.w3.org/Graphics/SVG/1.1/DTD/svg11.dtd"><svg t="1584125690678" class="icon" viewBox="0 0 1024 1024" version="1.1" xmlns="http://www.w3.org/2000/svg" p-id="2005" xmlns:xlink="http://www.w3.org/1999/xlink" width="128" height="128"><defs><style type="text/css"></style></defs><path d="M870.049115 290.065106h-68.71502l110.017133 140.573386L1023.415191 289.918903h-76.683038C926.410051 124.564249 801.260994 17.032553 643.289549 1.754426c-21.930326-1.754426-42.179326 17.032553-42.179326 40.936608 1.462022 20.468304 15.424329 39.182182 34.35751 40.936607 118.862364 11.842376 214.405483 83.55454 234.654483 206.437465zM463.314677 0H76.756139C54.825814 0 37.793261 18.786979 37.793261 42.691034v368.429469c0 23.904055 17.105654 42.691034 39.035979 42.691033h386.485437c21.857224 0 39.035979-18.786979 39.03598-42.691033V42.691034C502.350657 18.786979 485.171902 0 463.314677 0zM114.256996 371.938321V81.873215h311.556825l-0.146202 290.065106h-311.410623z m34.35751 318.940034h73.539692L107.239292 568.214734 0 690.878355h73.539692c2.924043 189.33181 135.968018 312.141633 306.659052 329.247287 21.930326 1.681325 42.179326-17.032553 42.179326-40.936607a40.351799 40.351799 0 0 0-34.35751-40.936608c-133.043975-11.915477-234.654483-100.660194-239.406054-247.374072z m799.725871-122.809823H561.85494c-22.076528 0-39.035979 18.86008-39.035979 42.617933v370.183895c0 23.757853 17.105654 42.544832 39.035979 42.544831h386.485437c21.930326 0 39.035979-18.786979 39.035979-42.544831V610.686465c0-23.757853-18.713878-42.617933-39.035979-42.617933z m-37.647059 371.86522h-311.410622V651.623073h311.410622v288.310679z" p-id="2006" fill="#61677c"></path></svg>