<?xml version="1.0" standalone="no"?><!DOCTYPE svg PUBLIC "-//W3C//DTD SVG 1.1//EN" "http://www.w3.org/Graphics/SVG/1.1/DTD/svg11.dtd"><svg t="1584015788802" class="icon" viewBox="0 0 1024 1024" version="1.1" xmlns="http://www.w3.org/2000/svg" p-id="1927" xmlns:xlink="http://www.w3.org/1999/xlink" width="128" height="128"><defs><style type="text/css"></style></defs><path d="M511.8 98.7C318 97.9 159.8 254.3 159 448.6c0 95 39 185.9 107.9 251.5L467.8 898c32 40.2 58.6 39.1 92.4-0.3L779.5 676c16.6-19.5 31.5-40.7 43.6-63.1 27.4-51.1 41.5-107.5 41.5-165.2-1.3-193.8-159-349.8-352.8-349z m0.7 620.8h-0.5c-150.6-1.3-272.1-126-270.7-276.5 1.3-150.6 124.6-271.6 275.2-270.3 150.1 1.3 270.7 123.7 270.3 273.9-0.4 150.9-123.3 272.9-274.3 272.9z" fill="#067CF8" p-id="1928"></path><path d="M622.3 450.7h-75.9c-7.9 0.8-14.9-5.4-15.8-13.3V308.8c0.4-17-12.9-31.1-29.5-31.5-1.7 0-3.3 0-5 0.4-14.9 3.7-25.7 17.4-26.1 33.2v171.4c0.8 17 14.1 30.7 31.1 32.8h123.3c17.8-0.4 31.5-14.9 31.5-32.8 0-1.7 0-2.9-0.4-4.6-4.2-15.8-17.5-26.6-33.2-27z" fill="#067CF8" p-id="1929"></path></svg>