<?xml version="1.0" standalone="no"?><!DOCTYPE svg PUBLIC "-//W3C//DTD SVG 1.1//EN" "http://www.w3.org/Graphics/SVG/1.1/DTD/svg11.dtd"><svg t="1584544896698" class="icon" viewBox="0 0 1024 1024" version="1.1" xmlns="http://www.w3.org/2000/svg" p-id="9160" xmlns:xlink="http://www.w3.org/1999/xlink" width="128" height="128"><defs><style type="text/css"></style></defs><path d="M64.333548 511.744128v-63.968016h895.552223v64.041122H64.333548z m127.936031 64.041122h64.333548v63.968016h-64.333548v-63.968016z m192.26958 0h63.602484v63.968016h-63.602484v-63.968016z m191.538516 0h64.333548v63.968016h-64.333548v-63.968016z m192.26958 0h63.602484v63.968016h-63.602484v-63.968016z m-576.077676 127.936032h64.333548v63.968016h-64.333548v-63.968016z m192.26958 0h63.602484v63.968016h-63.602484v-63.968016z m191.538516 0h64.333548v63.968016h-64.333548v-63.968016z m192.26958 0h63.602484v63.968016h-63.602484v-63.968016z m0 127.936032h63.602484v63.968016h-63.602484v-63.968016z m-192.26958 0h64.333548v63.968016h-64.333548v-63.968016z m-191.538516 0h63.602484v63.968016h-63.602484v-63.968016z m-192.26958 0h64.333548v63.968016h-64.333548v-63.968016z m255.872064-767.616192v63.968016h127.936032V64.041122H448.141643z m429.865068 0h-109.659456v63.968016h45.325908a146.212608 146.212608 0 0 1 146.212608 146.212608v685.3716H64.333548V274.221746a146.212608 146.212608 0 0 1 146.212607-146.212608h46.056972V64.041122h-109.659456a146.212608 146.212608 0 0 0-146.212608 146.212608v813.307632h1023.488256V210.25373a146.212608 146.212608 0 0 0-146.212608-146.212608zM320.205611 0.073106h64.333548v191.904048h-64.333548V0.073106z m320.205612 0h63.602484v191.904048h-63.602484V0.073106z" p-id="9161" fill="#61677c"></path></svg>