<?xml version="1.0" standalone="no"?><!DOCTYPE svg PUBLIC "-//W3C//DTD SVG 1.1//EN" "http://www.w3.org/Graphics/SVG/1.1/DTD/svg11.dtd"><svg t="1584544849807" class="icon" viewBox="0 0 1024 1024" version="1.1" xmlns="http://www.w3.org/2000/svg" p-id="3648" xmlns:xlink="http://www.w3.org/1999/xlink" width="128" height="128"><defs><style type="text/css"></style></defs><path d="M185.856 273.408h636.928v109.568H185.856z" fill="#61677c" p-id="3649"></path><path d="M902.144 858.112H128c-11.264 0-19.968-9.216-19.968-19.968V271.872c0-11.264 9.216-19.968 19.968-19.968h694.272c11.264 0 19.968 9.216 19.968 19.968v115.712c0 11.264-9.216 19.968-19.968 19.968H205.824c-11.264 0-19.968-9.216-19.968-19.968v-56.32h39.936v36.352h576.512V291.84H147.968v526.336h734.208v-606.72H101.888V171.52h800.256c11.264 0 19.968 9.216 19.968 19.968v646.656c0 11.264-9.216 19.968-19.968 19.968z" fill="#61677c" p-id="3650"></path><path d="M259.584 504.32H391.68v39.936H259.584z m0 180.224H391.68v39.936H259.584z" fill="#61677c" p-id="3651"></path><path d="M305.664 458.24H345.6v132.096h-39.936zM455.68 684.544h132.096v39.936H455.68z m46.08-46.08h39.936v32.768H501.76z m0 99.84h39.936v32.768H501.76zM453.878 563.85l107.525-107.525 28.242 28.237L482.12 592.087z" fill="#61677c" p-id="3652"></path><path d="M453.878 484.94L482.12 456.7l107.52 107.525-28.237 28.237z m210.186 183.732H788.48v39.936H664.064z m0 67.072H788.48v39.936H664.064z" fill="#61677c" p-id="3653"></path></svg>