<?xml version="1.0" standalone="no"?><!DOCTYPE svg PUBLIC "-//W3C//DTD SVG 1.1//EN" "http://www.w3.org/Graphics/SVG/1.1/DTD/svg11.dtd"><svg t="1584545069780" class="icon" viewBox="0 0 1024 1024" version="1.1" xmlns="http://www.w3.org/2000/svg" p-id="12643" xmlns:xlink="http://www.w3.org/1999/xlink" width="128" height="128"><defs><style type="text/css"></style></defs><path d="M907.469273 1022.722236H114.488988c-63.121537 0-114.232094-51.110557-114.487646-114.487647V115.509858C0.001342 52.38832 51.367451 1.022211 114.488988 1.022211H639.649957c19.677564 0 35.521837 15.844273 35.521836 35.521837s-15.844273 35.521837-35.521836 35.521837H114.488988c-23.766409 0-43.443973 19.422011-43.443973 43.443973v792.724731c0 24.021962 19.422011 43.443973 43.443973 43.443974h792.724732c24.021962 0 43.443973-19.422011 43.443973-43.443974V355.729473c0-19.677564 15.844273-35.521837 35.521837-35.521836s35.521837 15.844273 35.521837 35.521836v552.505116c0 63.121537-51.366109 114.487647-114.232094 114.487647z m0 0" fill="#61677c" p-id="12644"></path><path d="M471.751778 732.669828c-9.966559 0-19.422011-4.088845-26.066383-11.499875L195.49922 451.306214c-13.288745-14.310956-12.522086-36.799601 1.78887-50.088345 14.310956-13.288745 36.799601-12.522086 50.088345 1.788869L468.429592 641.437484 898.01382 57.754929c7.411031-10.733217 19.933117-16.610931 32.710756-15.333167 13.033192 1.277764 24.021962 9.455453 29.133017 21.466434s3.322186 25.810831-4.855503 35.777389l-454.883953 618.437734c-6.133267 8.433242-16.099825 13.79985-26.577489 14.310956l-1.78887 0.255553z m0 0" fill="#61677c" p-id="12645"></path></svg>