<?xml version="1.0" standalone="no"?><!DOCTYPE svg PUBLIC "-//W3C//DTD SVG 1.1//EN" "http://www.w3.org/Graphics/SVG/1.1/DTD/svg11.dtd"><svg t="1584215640433" class="icon" viewBox="0 0 5248 1024" version="1.1" xmlns="http://www.w3.org/2000/svg" p-id="2025" xmlns:xlink="http://www.w3.org/1999/xlink" width="656" height="128"><defs><style type="text/css"></style></defs><path d="M1675.95682184 323.82808895h153.97269823v135.67549408h-153.97269823v-135.67549408zM1675.95682184 518.88318914h153.97269823v532.69029904h-153.97269823V518.88318914zM1425.31964872 519.40103346l-328.83182767-0.86307523v112.02722105h288.2672714s68.87343773 16.91628323 68.87343774 60.24268134v39.52886628h-260.99407996s-102.7060042 9.49383162-135.67549546 131.87796088c-5.69629979 57.48083951 1.8987666 85.78972097 5.69629979 95.97401304 3.7975332 10.52952299 34.00518126 78.19465457 123.41982065 95.11093919h415.48462387V671.99281078s-19.85073983-131.01488566-176.24005036-152.59177732z m28.30888147 428.60337529h-210.07261685c-28.30888146-11.39259821-37.6300983-30.20764805-39.52886489-34.86825647-1.8987666-4.66060842-8.45814162-21.57689167-0.86307523-38.66578968 16.91628323-32.96948988 45.2251647-40.56455627 45.22516469-40.56455627h205.41200842v114.09860242h-0.17261614zM911.27178338 690.11740017c98.39062532-51.43931018 85.96233574-181.2458897 85.96233573-181.2458897C986.35936659 310.01887845 743.66248941 319.3400953 743.66248941 319.3400953H368.56980566v740.51891973h423.59753596c248.91102128-0.86307522 231.13166281-195.22771496 231.13166282-195.22771496 4.31537888-129.80657952-112.02722106-174.51389991-112.02722106-174.5138999z m-381.30682786-226.4710544h244.07779671s53.16546063-2.24399614 70.77220571 39.87409581c0 0 10.52952299 44.53470424-7.07722071 75.26019798 0 0-17.26151278 31.41595419-62.31406271 38.147944h-245.458719v-153.28223779zM844.64234178 887.24388173s-16.05320801 27.96365192-60.93314178 34.86825647v0.17261615h-253.74424448V762.96098586h252.36332356l8.63075639 1.55353705s48.15962267 8.80337116 65.59375022 52.12976926c0 0 10.0116773 40.3919415-11.91044391 70.59958956zM2368.14350414 110.82101414c84.92664575 0 153.45485255-97.70016487 153.45485255-218.70337323 0-120.65797745-68.52820819-218.35814231-153.45485255-218.35814232-84.75402959 0-153.62746869 97.70016487-153.6274687 218.35814232 0 121.00320836 68.87343773 218.70337323 153.6274687 218.70337323zM2733.91496966 125.14807032c113.58075673 14.84490187 186.4243438-106.33092126 201.09663092-198.16217156 14.84490187-91.65863553-58.34391474-198.16217294-138.78256683-216.45937709-80.43865208-18.46981892-180.90065877 110.47368537-190.04926224 194.53725451-11.21998344 102.87861897 14.49967096 205.58462318 127.73519815 220.08429415zM2082.81068932 418.76641199C2236.61077278 385.79692074 2215.55172681 201.96180537 2210.89111839 161.74247863 2203.46866677 99.94626161 2130.62508107-8.11081148 2031.88922483 0.34733015c-124.45551064 11.04736867-142.58010002 190.73972131-142.58009865 190.73972131-16.91628323 83.20049391 40.04671058 260.82146518 193.50156314 227.67936053zM3011.997949 103.22594912c-135.50287931 0-153.80008347 124.62812542-153.80008346 212.83445866 0 84.23618528 7.24983547 201.78708998 175.54958989 197.98955679 168.29975442-3.62491842 150.00255027-190.73972131 150.00255028-234.92919601 0-43.67162902-36.42179353-175.89482081-171.75205671-175.89481944zM2246.10460441 738.4496376c-4.48799365 12.94613527-14.49967096 45.91562515-5.86891457 74.74235229 17.26151278 64.55806023 73.18881661 67.31990205 73.18881661 67.31990205h80.61126686v-196.78125204h-86.13495051c-38.83840445 11.56521437-57.65345428 41.77286242-61.79621839 54.7189977z" fill="#61677c" p-id="2026"></path><path d="M3011.997949 664.91559146s-175.54958991-135.84810886-278.08297934-282.74358778C2594.95978807 165.7126266 2397.48807696 253.74634508 2331.54909584 363.70218477 2265.78273085 473.83063922 2163.42195618 543.56715217 2148.74967046 562.03697247c-14.67228573 17.95197323-212.14399821 124.62812542-168.29975443 319.33799469C2024.29415982 1075.91222167 2178.09424329 1071.9420737 2178.09424329 1071.9420737s113.40814197 11.21998344 245.11348808-18.29720415c131.53273135-29.17195806 244.76825855 7.42245025 244.76825854 7.42245163s307.42755079 102.87861897 391.49112131-95.45616873c84.06356913-198.16217294-47.46916083-300.695561-47.46916222-300.69556099zM2486.03963975 959.74223788H2286.32393114c-86.48018142-17.08889801-120.83059358-76.1232732-124.97335633-86.30756665-4.31537888-10.0116773-28.82672714-57.48083951-15.88059186-137.91949161 37.28486875-120.65797745 143.78840617-129.46134998 143.78840478-129.46134859h106.50353741v-130.66965612l90.45032938 1.3809209V959.74223788h-0.17261477z m372.33084056-1.38092091H2628.27450887c-89.06940848-22.95781257-93.21217121-86.13495189-93.21217123-86.13495189V617.79166016l93.21217123-1.55353706v228.71505191c5.69629979 24.33873349 35.90394786 28.65411237 35.90394785 28.65411099h94.93832304V617.79166016h99.25370055v340.56965681zM3809.47986258 913.48138182V823.37628334H3381.73956387v120.31274652h395.46126928c25.37442486 4.31537888 34.69564171-4.83322319 32.27902943-30.20764804zM3381.73956387 716.87274594h429.98429483v-120.31274791H3381.73956387v120.31274791z m-161.74037939-381.47944401h749.14967613v101.67031421H3686.92311853l-16.22582278 64.730675h263.58330838v446.21011761c4.66060842 62.48667747-30.03503329 92.52171076-106.33092264 90.10509986H3254.69482618V504.21090204h261.33931087l13.8092105-64.73067499H3219.99918448v-104.08692512z m1156.00354361 478.66176318l48.50485221 27.79103715 50.92146449 27.79103577 92.52171075-55.40945676h-191.94802745v-0.17261616z m-11.56521437-238.20888214v71.63527956h247.3574856c25.37442486 4.66060842 39.35625012-2.24399614 39.35625014-18.46981893v-53.16546063h-286.71373574z m-106.33092125 2.24399614h-39.35625013V490.22907677h34.6956417v-34.69564171h106.33092127v30.03503329h286.71373572v-27.79103715h106.33092265v27.79103715h34.6956417v87.86110234h-34.52302694v74.05189184c-4.66060842 41.60024765-30.03503329 62.48667747-80.95649777 62.48667747H4255.86259634v-131.87796089h2.24399613z m-32.27902942 235.964886V735.34256486h557.20164867v71.63528092l-196.60863725 117.89613563 18.46982029 9.32121685c13.8092105 9.32121684 27.79103577 11.56521437 46.2608547 9.32121683h136.36595592v87.86110234h-173.47820853c-23.13042734 0-46.26085607-4.66060842-64.73067499-11.56521298l-71.63528093-34.6956417-62.48667749 30.0350319c-23.13042734 9.32121684-48.50485221 16.22582278-76.29588934 18.4698203h-131.87796088v-90.10509986h92.52171075c20.88643121 0 36.93963785-2.24399614 46.26085606-6.90460456l34.69564171-16.22582278-152.59177732-106.33092264h-2.07138137z m150.17516504-460.19194287v-30.03503329h120.31274791V353.86312224h296.03495257v87.86110233h-598.80189632v594.31390129h-104.08692374V353.86312224h286.54111958z" fill="#61677c" p-id="2027"></path></svg>