<?xml version="1.0" standalone="no"?><!DOCTYPE svg PUBLIC "-//W3C//DTD SVG 1.1//EN" "http://www.w3.org/Graphics/SVG/1.1/DTD/svg11.dtd"><svg t="1586253157974" class="icon" viewBox="0 0 1101 1024" version="1.1" xmlns="http://www.w3.org/2000/svg" p-id="2766" xmlns:xlink="http://www.w3.org/1999/xlink" width="137.625" height="128"><defs><style type="text/css"></style></defs><path d="M661.317058 635.543441a317.77172 317.77172 0 1 1 317.77172-317.771721 318.080386 318.080386 0 0 1-317.77172 317.771721z m0-558.22259a240.605203 240.605203 0 1 0 240.605202 240.450869A240.759536 240.759536 0 0 0 661.317058 77.320851z" p-id="2767" fill="#2c2c2c"></path><path d="M272.860807 1023.999691a38.583259 38.583259 0 0 1-38.583259-38.583259 427.502509 427.502509 0 0 1 427.03951-427.039509 38.583259 38.583259 0 1 1 0 77.166518 350.335991 350.335991 0 0 0-349.872992 349.872991 38.428926 38.428926 0 0 1-38.583259 38.583259zM350.79899 618.875473a262.366161 262.366161 0 0 1 0-526.121319 38.583259 38.583259 0 0 1 0 77.166518 185.199643 185.199643 0 0 0 0 371.63395 38.583259 38.583259 0 1 1 0 77.166518z" p-id="2768" fill="#2c2c2c"></path><path d="M38.583259 931.091204a38.583259 38.583259 0 0 1-38.583259-38.583259 351.261989 351.261989 0 0 1 350.79899-350.79899 38.583259 38.583259 0 1 1 0 77.166518A273.941138 273.941138 0 0 0 77.166518 892.507945a38.583259 38.583259 0 0 1-38.583259 38.583259zM1062.58295 863.493334h-321.012714a38.583259 38.583259 0 0 1 0-77.166518h321.012714a38.583259 38.583259 0 0 1 0 77.166518z" p-id="2769" fill="#2c2c2c"></path><path d="M902.076593 1023.999691a38.583259 38.583259 0 0 1-38.583259-38.583259V663.786386a38.583259 38.583259 0 0 1 77.166518 0v321.012714a38.583259 38.583259 0 0 1-38.583259 39.200591z" p-id="2770" fill="#2c2c2c"></path></svg>