<?xml version="1.0" standalone="no"?><!DOCTYPE svg PUBLIC "-//W3C//DTD SVG 1.1//EN" "http://www.w3.org/Graphics/SVG/1.1/DTD/svg11.dtd"><svg t="1584974338621" class="icon" viewBox="0 0 1024 1024" version="1.1" xmlns="http://www.w3.org/2000/svg" p-id="9342" xmlns:xlink="http://www.w3.org/1999/xlink" width="128" height="128"><defs><style type="text/css"></style></defs><path d="M730.051765 702.584471c-38.912-37.586824-96.195765-55.175529-147.877647-55.17553H380.566588c-134.264471 0-267.625412 137.155765-278.407529 310.693647H0v-51.802353c0-175.043765 141.673412-321.174588 308.404706-355.087059a301.718588 301.718588 0 0 1-130.891294-248.651294C177.573647 135.529412 313.825882 0.060235 481.822118 0.060235c168.056471 0 304.308706 135.408941 304.308706 302.501647a301.778824 301.778824 0 0 1-130.710589 248.591059c50.597647 10.24 107.700706 37.345882 150.40753 65.957647l-75.715765 85.473883zM481.882353 100.833882c-112.097882 0.060235-202.932706 90.352941-202.932706 201.788236C278.949647 413.876706 369.844706 504.229647 481.882353 504.229647c112.037647 0 202.872471-90.352941 202.872471-201.728 0-111.375059-90.834824-201.667765-202.872471-201.667765z" p-id="9343" fill="#515151"></path><path d="M939.369412 618.556235c-2.529882-2.590118-11.444706-22.106353-16.504471-14.45647L652.528941 879.435294l-99.990588-91.738353c-2.529882-2.590118-14.757647 3.312941-19.757177 8.432941l-47.344941 48.911059c-2.529882 2.590118-4.999529 10.300235-2.529882 12.890353l109.748706 113.242353 47.405176 48.911059c2.469647 2.590118 7.469176 2.590118 12.468706-2.529882l47.405177-48.911059 281.840941-283.166118c4.999529-7.710118 7.469176-15.480471 4.999529-18.070588l-47.405176-48.850824z" p-id="9344" fill="#515151"></path></svg>