<?xml version="1.0" standalone="no"?><!DOCTYPE svg PUBLIC "-//W3C//DTD SVG 1.1//EN" "http://www.w3.org/Graphics/SVG/1.1/DTD/svg11.dtd"><svg t="1585238498660" class="icon" viewBox="0 0 1024 1024" version="1.1" xmlns="http://www.w3.org/2000/svg" p-id="2556" xmlns:xlink="http://www.w3.org/1999/xlink" width="128" height="128"><defs><style type="text/css"></style></defs><path d="M458.505926 1023.997357a10.834553 10.834553 0 0 1-7.630431-2.873799l-59.12759-56.154693-81.02792 0.957933a10.33907 10.33907 0 0 1-10.504231-7.630432l-28.605861-75.313354-72.472588-35.278361a13.212869 13.212869 0 0 1-6.606434-11.429132l5.714566-81.02792-50.539225-62.926289a11.429132 11.429132 0 0 1-0.957933-13.212869l40.992927-69.598788-19.059564-78.187153a12.420097 12.420097 0 0 1 4.756633-12.387065l65.800088-44.824659 18.101631-79.277214a10.140877 10.140877 0 0 1 9.546298-8.588365l61.010423-8.588365L162.009143 16.317893A10.239974 10.239974 0 0 1 162.967076 5.813662 12.651322 12.651322 0 0 1 172.513374 0.099097h248.831358a11.726421 11.726421 0 0 1 10.504231 6.606434l79.277215 167.803438 80.103019-167.803438a11.726421 11.726421 0 0 1 10.471199-6.606434h248.86439a11.957647 11.957647 0 0 1 10.471198 16.218796L707.370316 352.783606h5.714566a10.33907 10.33907 0 0 1 10.471199 7.630432l28.605862 75.313354 72.472587 35.27836a13.212869 13.212869 0 0 1 6.606435 11.429132l-5.714566 81.02792 50.539224 62.926289a11.429132 11.429132 0 0 1 0.957933 13.212869L836.03063 709.20075l18.10163 78.187154a12.420097 12.420097 0 0 1-4.756633 12.387064l-65.800088 44.824659-18.101631 79.277215a10.140877 10.140877 0 0 1-9.546297 8.588365l-81.02792 10.50423-49.54826 63.884223a11.726421 11.726421 0 0 1-9.546298 4.756633 7.201014 7.201014 0 0 1-3.798699-0.957933l-78.187154-24.77413-72.472587 35.278361a3.03896 3.03896 0 0 1-2.873799 2.873799z m-62.926289-81.985853a10.834553 10.834553 0 0 1 7.630432 2.8738l56.154694 53.379991 69.598788-34.320428a8.588365 8.588365 0 0 1 4.756633-0.957933 7.201014 7.201014 0 0 1 3.7987 0.957933l75.313354 23.849229 47.665425-61.968356a13.212869 13.212869 0 0 1 7.630432-4.756633l77.22922-10.504231 17.17673-76.271287c0.957933-2.873799 1.915866-5.714566 4.756633-6.606435l62.926289-42.941824-17.17673-75.313354a13.477127 13.477127 0 0 1 0.957933-8.588365l39.077061-66.724989-47.665426-60.052491a10.834553 10.834553 0 0 1-2.873799-7.630431l5.714566-78.187154-69.433627-34.386491a11.131842 11.131842 0 0 1-5.714566-5.714566l-27.647929-72.472588-77.22922 0.957933a10.834553 10.834553 0 0 1-7.630432-2.873799l-56.154693-53.379991-69.697885 34.386492a8.588365 8.588365 0 0 1-4.756633 0.957933 7.201014 7.201014 0 0 1-3.7987-0.957933l-76.271287-23.849229-47.665425 61.968357a13.212869 13.212869 0 0 1-7.630432 4.756632l-77.22922 9.546298-17.17673 76.271287c-0.957933 2.873799-1.915866 5.714566-4.756633 6.606435l-62.926289 42.941825 17.17673 75.313354a13.477127 13.477127 0 0 1-0.957933 8.588365l-39.077061 66.724989 48.623359 60.05249a10.834553 10.834553 0 0 1 2.873799 7.630432l-5.714566 78.187153 69.598788 34.320427a11.131842 11.131842 0 0 1 5.714566 5.714566l27.647928 72.472587zM349.830078 371.843169L396.53757 310.832746a11.726421 11.726421 0 0 1 9.546298-4.756633 7.201014 7.201014 0 0 1 3.7987 0.957933l64.842155 20.97543L330.770514 22.891296H190.615005l159.215073 348.951873z m282.226884-18.10163l49.54826-0.957933L832.264962 22.891296h-59.127589l-148.644778 324.177744 7.630432 6.606434z m-62.926289-59.12759c1.915866 0.957933 2.873799 0.957933 3.7987 2.873799l34.320428 33.362495L748.363243 22.891296h-139.197576l-84.859652 178.373733 44.824658 93.448017z m-69.598788 30.521728l47.665425-23.849229L414.738297 22.891296h-59.127589l143.954209 302.244381z" fill="#AA1300" p-id="2557"></path><path d="M511.885918 921.432461c-144.218467 0-262.737903-104.315602-262.737903-233.174108s117.561503-233.174108 262.737903-233.174108 262.737903 104.315602 262.737902 233.174108-118.519436 233.174108-262.737902 233.174108z m0-444.414853c-131.368951 0-239.053835 94.670207-239.053835 211.405906s106.693918 212.132614 239.053835 212.132614 239.053835-94.670207 239.053834-212.132614-107.651851-211.405906-239.053834-211.405906z" fill="#AA1300" p-id="2558"></path><path d="M512.018046 818.8015a6.606435 6.606435 0 0 1-4.393279-0.891869l-2.642573-0.891868c-103.423733-39.440414-115.612605-93.778339-115.612605-130.609212v-130.609211a10.140877 10.140877 0 0 1 10.504231-10.504231h17.540083a114.225254 114.225254 0 0 0 80.631534-24.542904 3.071992 3.071992 0 0 0 0.891869-1.750706l7.002821-7.00282a10.834553 10.834553 0 0 1 7.00282-3.501411 7.960754 7.960754 0 0 1 7.002821 3.501411l7.002821 7.00282a120.831688 120.831688 0 0 0 83.274107 26.425739h15.789379a10.140877 10.140877 0 0 1 10.504231 10.504231v128.825474c0 36.830873-12.254936 91.168797-115.612605 130.609211l-4.393279 2.642574a7.894689 7.894689 0 0 1-4.492376 0.792772z m-101.673028-132.359917c0 30.686889 10.504231 76.271287 100.814192 110.459586h0.891869c92.919502-35.939004 103.423733-81.523403 103.423733-112.309387v-118.321243h-5.252116a139.230608 139.230608 0 0 1-97.279749-31.545725l-1.750705 1.750705a133.714236 133.714236 0 0 1-93.778339 29.728955h-7.894689v120.071949z" fill="#AA1300" p-id="2559"></path><path d="M502.108395 705.930565a9.909652 9.909652 0 0 1-7.002821-2.642573l-42.941825-41.19112a10.834553 10.834553 0 0 1-3.50141-7.002821 14.13777 14.13777 0 0 1 2.642574-7.894689 11.131842 11.131842 0 0 1 7.894689-3.50141 9.909652 9.909652 0 0 1 7.002821 2.642574l35.047135 34.188298 53.479088-54.337924a10.801521 10.801521 0 0 1 7.00282-3.50141 7.960754 7.960754 0 0 1 7.002821 3.50141 10.074813 10.074813 0 0 1 0 14.89751l-61.340745 61.340745c0 2.642574-2.642574 3.50141-5.285147 3.50141z" fill="#AA1300" p-id="2560"></path></svg>